<svg xmlns="http://www.w3.org/2000/svg" data-name="Layer 1" viewBox="0 0 512 512"><path fill="#fdd402" d="M482.60842,234.10038a188.814,188.814,0,0,1-12.28,34.85,195.93219,195.93219,0,0,1-11.76,21.56006q-3.68994,5.86487-7.78,11.46l-64.74,52.53c-37.35,14.17993-145.66,49.85-240,2-23.11-11.72-55.53-28.79-66-64.67-13.27-45.50989,18.7-87.33,23.75-93.74l.02.02c6.11,5.68005,12.33,11.16,18.72,16.35a238.73473,238.73473,0,0,0,38.78,26.07007,178.32677,178.32677,0,0,0,74.5,20.86c40.38,2.35,80.05-7.70007,117.91-20.79,10.98-3.78992,91.27-41.27991,99.13007-35.68005C452.85842,204.92032,484.26833,227.31046,482.60842,234.10038Z"/><path fill="#fdd402" d="M10.70013,250.32324a249.10985,249.10985,0,0,0,16.86,55.73c.01,0,.01.01.01.02a.0098.0098,0,0,1,.01.01c2.5,5.74,5.26,11.46,8.27,17.1,31.87,59.69006,96.25,105.79993,162.92,127.96a290.824,290.824,0,0,0,50.59,12.05c99.98,14.19006,214.49-32.56995,254.68005-129.92,2.66992-6.46-25.02-33.31006-25.02-33.31006-2.36011-2.28992-13.76-.8999-28.23,2.01-28.04,5.64014-67.6001,16.9801-75.14014,18.37012-39.3999,7.25-80.12988,11.22-119.7,2.83-73.87-15.66-113.16992-69.01-152.13-125.05994l-.02-.02c-10.86-15.62012-21.68994-31.46-33.25-46.74q-2.235-2.97-4.5199-5.91c-1.89014-2.44006-6.59009-8.31995-13.86011-9.5a18.149,18.149,0,0,0-8.35.7c-9.91,3.06006-18.37849,13.03446-21.38,16.63a30.21675,30.21675,0,0,0-4.45,6.47C9.87523,179.84086,3.98016,212.54321,10.70013,250.32324Z"/><path fill="#8b8891" d="M443.92166 303.4104c13.05 16.48 32.31 41.12 45.64 57.98a188.25754 188.25754 0 0 0 14.48-28.12c2.67-6.46-25.02-33.31-25.02-33.31-2.36-2.29-13.76-.9-28.23 2.01C448.57166 302.4204 446.27166 302.9004 443.92166 303.4104zM468.86166 272.0404v-.01c-13.36-16.94-33.46-42.8-46.8-59.7 15.34-5.74 27.92-9.46 30.8-7.41 0 0 31.41 22.39 29.75 29.18a188.94966 188.94966 0 0 1-13.75 37.93zM62.12124 141.10082c-2.53857-6.1134-7.37456-17.10164-5.89958-32.10042 2.23706-22.74854 15.415-37.33105 19.82849-41.82715C75.764 65.774 73.26439 54.5402 62.22166 49.0004a26.80694 26.80694 0 0 0-21-1 95.49476 95.49476 0 0 0-18 27c-6.0105 13.59424-7.22192 25.02734-8 33a145.4883 145.4883 0 0 0 4 49.52879c2.54114-2.89441 9.4696-12.53025 21-15.52879C49.604 139.56058 58.35476 140.13195 62.12124 141.10082z"/><path d="M498.45215,309.25c-6.7124-7.66113-13.63965-14.3916-13.9292-14.67285-2.79321-2.71045-6.85913-4.02563-17.6311-2.83105q4.9184-8.08612,9.02429-16.51062c.01282-.027.0304-.05115.04285-.07825.064-.13135.123-.26514.18677-.39648q.93439-1.9303,1.82629-3.87646.22614-.49365.44861-.98865.82654-1.83234,1.61487-3.67883.22943-.5376.45666-1.07568.77563-1.8468,1.51147-3.708c.13892-.35034.27905-.70007.416-1.05127q.741-1.9021,1.43994-3.81934c.11975-.32739.24243-.65356.36047-.98145q.70624-1.96252,1.36755-3.94043c.10352-.30786.21118-.614.31311-.92236q.66339-2.00757,1.27991-4.03076c.09106-.29614.18726-.59058.27686-.88721.4126-1.3678.80579-2.74182,1.18872-4.11938.078-.2804.1626-.55908.23938-.83984q.6405-2.345,1.22351-4.708c.02075-.084.04456-.16724.06519-.25122,1.56152-6.38672-2.96533-13.06787-16.70312-24.65137-7.78809-6.56738-15.64795-12.18164-15.98291-12.42041-2.82471-2.00977-6.55786-2.76453-14.82166-.89429-.20679.04614-.41785.09473-.63013.14416-.08215.01941-.16187.03735-.24475.05725a189.12131,189.12131,0,0,0-21.81519,7.09033c-.09009.03369-.175.0647-.26562.09863l-.02832.01257c-12.16248,4.58081-28.37006,11.27893-50.24219,20.70032-8.29541,3.57324-15.46,6.65918-17.8833,7.49561-31.21729,10.793-72.50146,22.8667-115.02441,20.3916-57.40991-3.3374-96.28876-32.49365-126.74609-60.74792l-4.12158-5.93713c-9.25439-13.34277-18.82471-27.13965-28.84277-40.38135q-2.26758-3.01318-4.58447-5.99463c-.69684-.89917-1.60114-2.02466-2.72443-3.23706-.02783-.06567-.05109-.12158-.07928-.18823-2.48682-5.87256-6.64941-15.70117-5.4707-27.68555,1.83105-18.62109,11.88623-31.36719,17.7168-37.30762a7.50015,7.50015,0,0,0,1.99561-6.75586c-.54932-2.68652-3.98975-16.43945-17.81348-23.374C53.65771,36.17432,42.084,39.751,38.82715,40.99268a7.4994,7.4994,0,0,0-2.7749,1.85254A102.6802,102.6802,0,0,0,16.64014,71.96777c-6.62207,14.97607-7.86328,27.70166-8.605,35.3042a151.36119,151.36119,0,0,0,3.97565,48.31689c-.08649.15063-.184.30664-.26715.45557-11.98437,21.16309-15.03027,56.897-8.14844,95.58447a255.53706,255.53706,0,0,0,17.33545,57.33984c.05518.13184.11426.26172.17676.38867,2.56543,5.87109,5.39258,11.708,8.40625,17.35449,30.8833,57.84277,93.377,107.01758,167.1709,131.54492a298.25171,298.25171,0,0,0,51.90137,12.35938,260.71016,260.71016,0,0,0,36.60645,2.55078A276.1857,276.1857,0,0,0,387.9126,453.31543c46.66357-18.877,84.1084-49.28906,108.26611-87.917l.01514-.02466.00049-.00073c.02344-.03748.0459-.07568.06934-.11328.5376-.85486,1.06018-1.71655,1.56689-2.55762.03564-.05786.06995-.11694.10559-.175.20422-.33875.4093-.67651.61157-1.0166.1-.163.2-.32715.29358-.49585.40161-.67358.79211-1.35425,1.18213-2.03418.16846-.29321.33936-.58472.50623-.87891.51453-.90747,1.0271-1.82031,1.50549-2.70312.05847-.10657.11475-.21265.173-.31909q.1842-.33838.36719-.67749c.401-.7417.79529-1.48084,1.16663-2.20837q.55865-1.06842,1.10461-2.14355c.03235-.06628.07153-.13318.10217-.19934.38672-.74121.7583-1.48437,1.13379-2.24512.56152-1.14429,1.13037-2.351,1.7041-3.58972.11987-.25769.23828-.51611.35718-.77429.12781-.2793.25342-.54395.38208-.82837.37842-.81152.74609-1.64355,1.082-2.417.56689-1.28027,1.11328-2.57324,1.64307-3.86133C513.76465,330.05371,510.2959,322.7666,498.45215,309.25Zm-48.51-97.3877c11.594,8.38293,22.65918,18.08191,25.25366,22.0835l-.00183.00671c-.46863,1.83325-.97449,3.65771-1.50073,5.47668-.11206.3877-.22717.77454-.34192,1.1615-.50488,1.70227-1.02905,3.39917-1.58386,5.08667-.03577.10876-.069.21838-.105.32715q-.93658,2.83136-1.96765,5.63074c-.06665.18152-.13647.36182-.20361.54309q-.94739,2.55212-1.97095,5.07483c-.052.12842-.103.25732-.15527.38562-4.80225-6.12415-10.02441-12.80261-15.135-19.3385q-.97632-1.2486-1.957-2.50293a7.38928,7.38928,0,0,0-2.05518-2.62793c-4.64941-5.94531-9.28174-11.86475-13.53809-17.28564C444.34583,212.6228,448.39331,211.96533,449.94214,211.8623ZM460.29138,272.917a190.73878,190.73878,0,0,1-13.61816,22.30127c-1.337.27856-2.69055.56445-4.07068.86377-16.44336,3.58594-35.40723,8.54492-49.25391,12.165-8.7251,2.28223-16.26074,4.25293-18.77588,4.7168-32.48291,5.97656-75.11377,11.70605-116.78662,2.86914a171.3153,171.3153,0,0,1-44.03107-15.74316,271.53663,271.53663,0,0,0,61.04132,6.96875,272.91843,272.91843,0,0,0,167.31287-57.35046C448.41895,257.77734,454.80078,265.93591,460.29138,272.917Zm-224.62927-4.03613c45.15088,2.63379,88.272-9.94434,120.79248-21.188,2.94727-1.01758,9.647-3.90332,18.91992-7.89746,9.76135-4.20459,28.16907-12.13208,44.49854-18.47607,3.99414,5.07666,8.43945,10.75061,12.99561,16.57336a257.592,257.592,0,0,1-259.85638,33.16,298.78548,298.78548,0,0,1-30.22485-32.85547C167.76343,254.07141,198.21973,266.7041,235.66211,268.88086ZM64.84912,155.875c9.84229,13.00977,19.32275,26.67773,28.49072,39.89551l4.467,6.4342c.0343.05212.07141.10291.10718.15442l.00836.012c.05176.0752.10547.14941.16016.22217,21.23486,30.53857,40.85059,57.6665,65.69922,80.36475.02924.02673.059.05151.08832.07837.0354.03125.07.06323.10608.094,27.07587,24.6748,56.7453,40.1748,90.69818,47.37646,44.24951,9.38281,88.76953,3.43652,122.6167-2.791,3.05957-.56445,10.10352-2.40723,19.85254-4.95605,12.449-3.25537,29.06665-7.59912,44.09253-11.005,4.54224,5.74988,9.67627,12.27649,14.90271,18.92761-26.17932,20.39087-66.81458,44.31567-119.70325,51.8938-89.50928,12.8291-184.71777-25.76367-236.91406-96.04785C64.78955,239.75684,54.82617,189.4458,52.584,155.47754c-.16223-2.46191-.28937-4.925-.38416-7.37341a45.67378,45.67378,0,0,1,7.07227.55469c.40186.47314.76764.934,1.11121,1.37732Q62.63037,152.93359,64.84912,155.875ZM22.96387,108.729c.69678-7.13867,1.749-17.92627,7.395-30.6958A87.611,87.611,0,0,1,45.67432,54.52832a19.155,19.155,0,0,1,13.4624,1.17578,18.805,18.805,0,0,1,8.73438,9.57568A77.21747,77.21747,0,0,0,49.03564,108.2666a62.51264,62.51264,0,0,0,2.74268,24.81787,55.85108,55.85108,0,0,0-8.10992.62378,7.48829,7.48829,0,0,0-.766.12769c-1.40814.23584-2.84039.52856-4.29059.90576a39.5702,39.5702,0,0,0-14.14355,7.01855A131.29337,131.29337,0,0,1,22.96387,108.729ZM250.69531,455.76465a283.18677,283.18677,0,0,1-49.27979-11.74219c-70.23633-23.34473-129.55176-69.83984-158.66895-124.374-2.85449-5.34961-5.53223-10.88086-7.959-16.44434-.05762-.13965-.11963-.27637-.186-.41211a240.50706,240.50706,0,0,1-16.2373-53.78564c-6.19629-34.834-3.73193-67.62256,6.45313-85.6084.38635-.69165.80811-1.377,1.265-2.07764.2113-.24878.43481-.51465.68372-.813,2.0556-2.46606,5.48029-6.55969,10.57587-9.26465.08289,1.73962.15942,3.479.27423,5.22168,2.375,35.98047,12.95361,89.30371,49.86279,139.00732,48.312,65.05273,131.25928,104.53418,214.57812,104.53418a257.14869,257.14869,0,0,0,36.50684-2.582c56.12653-8.04211,99.15771-33.37549,126.84155-54.94531,5.32422,6.77734,10.5343,13.40491,15.21655,19.34082C435.03711,430.13135,341.3822,468.63757,250.69531,455.76465ZM494.97314,335.98157c-.02612.05627-.04871.108-.0752.16492l-.01831.04028q-1.66663,3.668-3.49939,7.255c-.04407.08093-.08752.16223-.1283.24377-.1958.39258-.39746.7793-.60059,1.16895l-.09753.18823c-.48035.921-.9635,1.84033-1.45911,2.75208-.05859.10754-.11487.21289-.17432.32129-4.70288-5.97192-9.80261-12.46387-14.918-18.97546-5.52832-7.03809-11.18115-14.23437-16.354-20.7998.63013-.11572,1.23145-.22278,1.82007-.32617.08594-.01514.17822-.03223.26343-.047.4939-.0863.96106-.1648,1.426-.2428.19946-.03345.40466-.06836.599-.10034.402-.06616.78625-.12744,1.16638-.1875.23877-.0376.47742-.0752.70776-.1106.33-.05078.65015-.09875.96313-.14478q.39368-.05786.76953-.11108c.26563-.0376.52954-.07471.78247-.109.28955-.03918.56677-.0752.84009-.11023.19214-.02466.38892-.05042.57324-.073.37183-.04565.72559-.08667,1.06628-.12463.07068-.00793.14819-.01746.21765-.025.86145-.09363,1.62354-.16345,2.295-.21387l.047-.00342q.47223-.035.88623-.058l.09351-.00488q.38049-.02051.71411-.0321l.108-.00342q.3111-.00989.58167-.01294l.11011-.00122c.168-.00122.32214-.00037.46753.00171.03687.00061.07715.00073.11267.00146.12244.00244.23132.00659.33765.01086.04712.00208.1.0033.14416.00574.04785.00244.08618.00562.13062.0083.07874.00513.15991.01.22827.01587,10.19873,10.02344,19.67627,21.26855,21.63916,25.6123Q495.88141,333.97876,494.97314,335.98157Z"/></svg>