<svg xmlns="http://www.w3.org/2000/svg" width="6" height="5" fill="none" viewBox="0 0 6 5"><path fill="#FCCE29" d="M5.33636 2.36654C5.33636 3.6514 4.29532 4.69244 3.01046 4.69244C1.72561 4.69244 0.68457 3.6514 0.68457 2.36654C0.68457 1.08169 1.72561 0.0406494 3.01046 0.0406494C4.29532 0.0406494 5.33636 1.08169 5.33636 2.36654Z"/><path fill="#39352F" d="M3.41677 1.40263C3.26971 1.45294 3.08395 1.46068 3.01042 1.46068C2.93689 1.46068 2.75113 1.45294 2.60406 1.40263C2.32155 1.30975 1.86489 1.24783 1.52045 1.25557C1.26503 1.26331 0.997998 1.29814 0.831587 1.3291C0.758056 1.34458 0.711615 1.41811 0.727096 1.48777L0.746446 1.56517C0.758056 1.60775 0.792886 1.64258 0.835457 1.65806C0.858677 1.6658 0.878027 1.68128 0.889637 1.7045C0.920597 1.78577 1.07927 2.25791 1.16828 2.43593C1.23794 2.57913 1.43144 2.70297 1.88424 2.70297C2.52279 2.70684 2.74726 2.28113 2.84788 2.01023C2.85949 1.98314 2.87497 1.92509 2.89045 1.87478C2.9098 1.79738 2.95624 1.72385 2.97946 1.71224C2.99107 1.7045 3.00655 1.70063 3.01816 1.70063C3.03364 1.70063 3.04525 1.7045 3.06073 1.71224C3.08008 1.72385 3.12652 1.79738 3.14587 1.87478C3.16135 1.92896 3.17683 1.98314 3.18844 2.01023C3.28906 2.285 3.51352 2.70684 4.15208 2.70297C4.601 2.70297 4.79451 2.57913 4.86804 2.43593C4.95705 2.26178 5.11572 1.78577 5.14668 1.7045C5.15442 1.67741 5.17764 1.6658 5.20086 1.65806C5.24343 1.64258 5.27826 1.61162 5.28987 1.56517L5.30922 1.48777C5.3247 1.41424 5.27826 1.34071 5.20473 1.3291C5.03832 1.29427 4.77129 1.25944 4.51586 1.25557C4.16756 1.24783 3.71477 1.30588 3.43225 1.40263H3.41677Z"/><path fill="#524A37" d="M3.31237 1.82833C3.32398 2.13793 3.62585 2.43593 3.90836 2.50559 4.32245 2.60621 4.63593 2.5172 4.81395 2.13406 4.86813 2.01796 4.98036 1.76641 4.97262 1.63483 4.96101 1.40263 4.66302 1.44133 4.47725 1.43746 4.4579 1.43746 3.29302 1.40263 3.31237 1.82833zM2.72407 1.82833C2.71246 2.13793 2.41059 2.43593 2.12421 2.50559 1.71012 2.60621 1.39664 2.5172 1.21862 2.13406 1.16444 2.01796 1.05221 1.76641 1.05995 1.63483 1.07156 1.40263 1.36955 1.44133 1.55532 1.43746 1.57467 1.43746 2.73955 1.40263 2.7202 1.82833H2.72407z"/><path fill="#5E3C30" d="M3.5058 3.55445C3.44388 3.55445 3.38196 3.55058 3.31616 3.53897C3.25424 3.53123 3.21167 3.47318 3.21941 3.41126C3.22715 3.34934 3.2852 3.30677 3.34712 3.31451C3.70704 3.36869 4.02825 3.23324 4.1637 2.9662C4.19079 2.91202 4.26045 2.8888 4.3185 2.91589C4.37269 2.94298 4.39591 3.01264 4.36882 3.07069C4.21401 3.37643 3.88506 3.55445 3.5058 3.55445Z"/></svg>